<svg width="101" height="23" viewBox="0 0 101 23" fill="none" xmlns="http://www.w3.org/2000/svg">
<path d="M1.363 18.825C4.002 14.736 8.41 9.052 10.701 5.253C7.772 5.369 4.263 5.427 1.943 5.456C0.928 5.485 0.493 4.992 0.464 3.484C0.435 2.092 0.928 1.367 1.798 1.309C6.496 1.077 10.991 0.989998 15.631 1.164C17.168 1.251 17.458 3.223 16.82 4.296C13.775 9.226 10.121 14.098 7.221 17.926C8.584 17.868 14.558 17.636 15.399 17.636C16.153 17.636 16.617 18.1 16.617 19.434C16.617 20.942 15.892 21.232 15.051 21.377C11.455 21.986 7.076 22.363 2.9 22.334C0.725 22.334 0.522 20.217 1.363 18.825ZM26.4602 17.897H28.2872C29.0412 17.897 29.5052 18.274 29.5342 19.666C29.5632 21.232 29.0122 21.667 28.2582 21.783C26.0252 22.102 22.4292 22.305 20.2542 22.305C19.1812 22.305 18.6882 21.754 18.6592 20.275C18.6302 18.883 19.1812 18.274 20.1092 18.216C20.7182 18.187 21.4142 18.158 21.9652 18.129C21.9652 14.794 21.9072 9.052 21.8492 5.34C20.9502 5.369 20.1672 5.369 19.6452 5.369C18.5722 5.369 18.1082 4.818 18.0792 3.31C18.0502 1.976 18.6012 1.222 19.5002 1.164C22.2262 1.019 26.7212 0.902999 29.3022 0.902999C30.0852 0.902999 30.4912 1.483 30.5492 2.817C30.6072 4.354 29.9692 4.847 29.1862 4.963C28.4322 5.079 27.5332 5.108 26.7792 5.137C26.6922 8.849 26.5762 14.185 26.4602 17.897ZM36.9847 5.543C36.9267 7.631 36.8397 9.922 36.8397 11.981C38.1157 12.155 40.2037 12.097 41.3347 11.981C43.3647 11.749 44.5537 10.821 44.6407 8.762C44.7277 6.5 43.3937 5.456 41.3057 5.369C40.0007 5.311 38.2897 5.34 36.9847 5.543ZM36.7527 16.07C36.7237 17.781 36.6657 19.086 36.5497 20.043C36.3467 21.667 35.8537 22.624 34.2877 22.624C32.9247 22.624 32.2577 22.015 32.1707 20.304C32.0837 17.549 32.0547 14.475 32.0547 11.43C32.0547 8.385 32.0837 5.34 32.1707 2.585C32.1997 1.773 32.4607 1.483 33.0987 1.396C35.1867 1.106 38.9277 1.106 41.3637 1.106C46.2067 1.106 49.2807 3.542 49.3677 8.24C49.4547 13.692 46.2067 16.041 41.4797 16.215C39.9427 16.273 38.2897 16.186 36.7527 16.07ZM58.4055 17.897H60.2325C60.9865 17.897 61.4505 18.274 61.4795 19.666C61.5085 21.232 60.9575 21.667 60.2035 21.783C57.9705 22.102 54.3745 22.305 52.1995 22.305C51.1265 22.305 50.6335 21.754 50.6045 20.275C50.5755 18.883 51.1265 18.274 52.0545 18.216C52.6635 18.187 53.3595 18.158 53.9105 18.129C53.9105 14.794 53.8525 9.052 53.7945 5.34C52.8955 5.369 52.1125 5.369 51.5905 5.369C50.5175 5.369 50.0535 4.818 50.0245 3.31C49.9955 1.976 50.5465 1.222 51.4455 1.164C54.1715 1.019 58.6665 0.902999 61.2475 0.902999C62.0305 0.902999 62.4365 1.483 62.4945 2.817C62.5525 4.354 61.9145 4.847 61.1315 4.963C60.3775 5.079 59.4785 5.108 58.7245 5.137C58.6375 8.849 58.5215 14.185 58.4055 17.897ZM81.9431 18.622C80.5801 20.884 77.4481 22.508 73.4461 22.624C67.1241 22.827 62.8031 19.086 62.8031 11.865C62.8031 5.92 66.2831 1.338 73.5041 0.874C76.4331 0.670999 80.0871 1.367 81.3341 3.571C81.8851 4.615 81.8561 5.717 80.9861 6.587C80.0871 7.457 78.9271 7.892 77.9991 6.964C76.9551 5.92 75.7661 5.079 73.5911 5.108C69.8501 5.166 67.5301 8.008 67.5301 11.894C67.5301 16.186 69.8501 18.68 73.3301 18.564C75.5631 18.477 77.6221 17.23 78.5211 15.635C79.1301 14.562 80.3481 14.852 81.2761 15.461C82.3781 16.186 82.5231 17.549 81.9431 18.622ZM91.8607 13.402C90.7007 14.533 89.3087 15.751 88.3807 16.534C88.3227 17.839 88.3807 19.231 88.3227 20.478C88.2647 21.783 87.7137 22.537 86.3797 22.624C84.9007 22.711 84.3787 21.928 84.2627 20.71C83.8857 16.737 83.6537 8.298 83.6537 2.556C83.6537 1.541 84.0017 0.874 86.0317 0.786999C87.8587 0.699999 88.2937 1.599 88.3227 2.585C88.3807 5.369 88.4097 8.066 88.4097 10.705C91.1647 7.776 94.0067 4.615 96.5877 1.831C97.5447 0.815999 98.7627 0.438999 99.8647 1.396C100.851 2.324 100.909 3.542 100.068 4.557C98.5597 6.326 96.8777 8.153 95.1957 9.893C96.5587 12.358 99.3717 18.767 99.8067 20.101C100.039 20.942 99.6617 21.928 98.6177 22.392C97.5447 22.856 96.6457 22.595 95.9497 21.493C94.4417 18.941 93.1657 16.128 91.8607 13.402Z" fill="#FF5927"/>
</svg>
